# xmcd
# 
# Track frame offsets:
#     150
#     19560
#     33139
#     51114
#     69954
#     89560
#     107996
#     121675
#     139290
#     157047
#     179759
#     195937
#     210274
#     230796
#     250937
# 
# Disc length: 3585
# 
# Revision: 0
# Processed by: cddbd v1.5.2PL0 Copyright (c) Steve Scherf et al.
# Submitted via: BonkEnc v1.0.8
# 
DISCID=ca0dff0f
DTITLE=Bosshoss - Low Viltage
DYEAR=2010
DGENRE=Country
TTITLE0=Stallion Battalion
TTITLE1=Have Love Will Travel
TTITLE2=Rodeo Queen
TTITLE3=Shake and  Shout
TTITLE4=Go! Go! Go!
TTITLE5=Rodeo Radio
TTITLE6=Close
TTITLE7=I say a Little Prayer
TTITLE8=Break Free
TTITLE9=Marry Marry Me
TTITLE10=Gay Bar
TTITLE11=Remedy
TTITLE12=Sugarman
TTITLE13=No One Knows
TTITLE14=Last Day
EXTD=
EXTT0=
EXTT1=
EXTT2=
EXTT3=
EXTT4=
EXTT5=
EXTT6=
EXTT7=
EXTT8=
EXTT9=
EXTT10=
EXTT11=
EXTT12=
EXTT13=
EXTT14=
PLAYORDER=
